# xmcd
#
# Track frame offsets:
#	150
#	18620
#	19952
#
# Disc length: 279 seconds
# Revision: 0
# Processed by: cddbd v1.5.2PL0 Copyright (c) Steve Scherf et al.
# Submitted via: dBpowerAMP V12.0
#
DISCID=1e011503
DTITLE=Daniel Bedingfield - If You’re Not The One
DYEAR=2003
DGENRE=Pop
TTITLE0=If You’re Not The One [Radio Edit]	
TTITLE1=If You’re Not The One [Call Out Research Hook #1]
TTITLE2=If You’re Not The One [Call Out Research Hook #2]
EXTD=
EXTT0=
EXTT1=
EXTT2=
PLAYORDER=
